<svg xmlns="http://www.w3.org/2000/svg" xmlns:xlink="http://www.w3.org/1999/xlink" id="Layer_1" x="0px" y="0px" viewBox="0 0 582.4 191.1" style="enable-background:new 0 0 582.4 191.1;" xml:space="preserve"><style type="text/css">	.st0{fill-rule:evenodd;clip-rule:evenodd;fill:#020000;}	.st1{fill-rule:evenodd;clip-rule:evenodd;fill:url(#SVGID_1_);}	.st2{fill-rule:evenodd;clip-rule:evenodd;fill:url(#SVGID_00000142142037073669759250000015197634848782095289_);}	.st3{fill-rule:evenodd;clip-rule:evenodd;fill:#FFFFFF;}</style><g>	<path class="st0" d="M417.3,46.9l-10.4,13.7c-1,1.3-2.4,2-4,2h-64.2c-2,0-3.6-1-4.5-2.8c-0.9-1.7-0.7-3.7,0.5-5.3l10.4-13.7  c1-1.3,2.4-2,4-2h64.2c2,0,3.6,1,4.5,2.8C418.7,43.4,418.5,45.4,417.3,46.9L417.3,46.9z M310,40.4c-1.5-1.5-3.5-1.9-5.5-1.1  c-1.9,0.8-3.1,2.6-3.1,4.6v67.7c0,22.3,18.2,40.5,40.5,40.5h41.5c22.3,0,40.5-18.2,40.5-40.5s-18.2-40.5-40.5-40.5h-34.3  c-1.6,0-3,0.7-4,2l-10.4,13.7c-1.2,1.6-1.4,3.5-0.5,5.3c0.9,1.7,2.5,2.8,4.5,2.8h44.8c9.2,0,16.8,7.5,16.8,16.8  c0,9.2-7.5,16.8-16.8,16.8H342c-9.2,0-16.8-7.6-16.8-16.8v-54c0-1.4-0.5-2.6-1.5-3.5L310,40.4L310,40.4z M105.7,38.9h17.2  c1.6,0,3,0.7,4,2l33.8,45.3c0.7,0.9,1,1.9,1,3v22.5c0,22.3-18.2,40.5-40.5,40.5H79.7c-22.3,0-40.5-18.2-40.5-40.5  s18.2-40.5,40.5-40.5h28.7c1.6,0,3,0.7,4,2l10.4,13.7c1.2,1.6,1.4,3.5,0.5,5.3c-0.9,1.7-2.5,2.8-4.5,2.8H79.7  c-9.2,0-16.8,7.5-16.8,16.8c0,9.2,7.5,16.8,16.8,16.8h41.5c9.2,0,16.8-7.5,16.8-16.8V95.5c0-0.1,0-0.2-0.1-0.3l-36.2-48.4  c-1.2-1.6-1.3-3.5-0.5-5.2C102.1,39.9,103.8,38.9,105.7,38.9L105.7,38.9z M254,152.1h-17.2c-1.9,0-3.6-1-4.5-2.8  c-0.9-1.7-0.7-3.7,0.5-5.2L269,95.8c0.1-0.1,0.1-0.1,0.1-0.3V79.4c0-9.2-7.5-16.8-16.8-16.8h-41.5c-9.2,0-16.8,7.5-16.8,16.8  c0,9.2,7.5,16.8,16.8,16.8H250c1.9,0,3.6,1,4.5,2.8c0.9,1.7,0.7,3.7-0.5,5.3L243.6,118c-1,1.3-2.4,2-4,2h-28.7  c-22.3,0-40.5-18.2-40.5-40.5S188.6,39,210.9,39h41.5c22.3,0,40.5,18.2,40.5,40.5V102c0,1.1-0.3,2.1-1,3l-33.8,45.3  C257.1,151.4,255.7,152.1,254,152.1z"></path>	<path class="st0" d="M340.4,128.4L340.4,128.4c-25.4-0.1-38.4-13.7-39-40.8V51.7c0-2.1,1.2-3.8,3.1-4.6s4-0.4,5.5,1.1l13.7,13.7  c1,1,1.5,2.2,1.5,3.5v46.2C325.1,120.4,331.9,127.6,340.4,128.4z"></path>	<path class="st0" d="M253.8,62.7L253.8,62.7c21.8,0,34.5,10.1,38,30.1c0.1,0.6,0.7,9.9,0.8,10.5l-23.4,1.9L269,92.8V79.4  C269.1,70.7,262.4,63.4,253.8,62.7z"></path>	<path class="st0" d="M122.7,128.4L122.7,128.4c21.8,0,34.5-10.1,38-30.1c0.1-0.6,0.7-9.9,0.8-10.5l-23.4-1.9L138,98.3v13.4  C138,120.4,131.3,127.6,122.7,128.4z"></path>	<path class="st0" d="M379.9,152.2c1.1-8.1,1.5-17.3,2.2-23.7h1.4c9.2,0,16.8-7.5,16.8-16.8c0-9.2-7.5-16.8-16.8-16.8  c15.1-0.6,25.4,1.4,31,6.1C432,115.4,415,153.7,379.9,152.2z"></path>	<path class="st0" d="M214.4,38.9c-1.1,8.1-1.5,17.3-2.2,23.7h-1.4c-9.2,0-16.8,7.5-16.8,16.8c0,9.2,7.5,16.8,16.8,16.8  c-15.1,0.6-25.4-1.4-31-6.1C162.3,75.6,179.2,37.4,214.4,38.9z"></path>	<path class="st0" d="M83.2,152.2c-1.1-8.1-1.5-17.3-2.2-23.7h-1.4c-9.2,0-16.8-7.5-16.8-16.8c0-9.2,7.5-16.8,16.8-16.8  c-15.1-0.6-25.4,1.4-31,6.1C31.2,115.5,48.1,153.7,83.2,152.2z"></path>			<linearGradient id="SVGID_1_" gradientUnits="userSpaceOnUse" x1="546.3141" y1="26.16" x2="485.5575" y2="122.5147" gradientTransform="matrix(1 0 0 -1 0 194)">		<stop offset="0" style="stop-color:#680B00"></stop>		<stop offset="0.1025" style="stop-color:#7B1000"></stop>		<stop offset="0.3166" style="stop-color:#9F1806"></stop>		<stop offset="0.5201" style="stop-color:#BD1D0B"></stop>		<stop offset="0.7076" style="stop-color:#D2210E"></stop>		<stop offset="0.8733" style="stop-color:#E0230E"></stop>		<stop offset="1" style="stop-color:#E4240E"></stop>	</linearGradient>	<path class="st1" d="M483.7,38.8h34c21.8,0,39.7,17.9,39.7,39.7v34c0,21.8-17.9,39.7-39.7,39.7h-34c-21.8,0-39.7-17.9-39.7-39.7  v-34C444,56.7,461.8,38.8,483.7,38.8z"></path>			<linearGradient id="SVGID_00000165227804308210082370000005590296228327863707_" gradientUnits="userSpaceOnUse" x1="459.7916" y1="163.2979" x2="514.2443" y2="76.9407" gradientTransform="matrix(1 0 0 -1 0 194)">		<stop offset="0" style="stop-color:#680B00"></stop>		<stop offset="0.1025" style="stop-color:#7B1000"></stop>		<stop offset="0.3166" style="stop-color:#9F1806"></stop>		<stop offset="0.5201" style="stop-color:#BD1D0B"></stop>		<stop offset="0.7076" style="stop-color:#D2210E"></stop>		<stop offset="0.8733" style="stop-color:#E0230E"></stop>		<stop offset="1" style="stop-color:#E4240E"></stop>	</linearGradient>	<path style="fill-rule:evenodd;clip-rule:evenodd;fill:url(#SVGID_00000165227804308210082370000005590296228327863707_);" d="  M515.9,146.3h-30.5c-19.6,0-35.6-16-35.6-35.6V80.3c0-19.6,16-35.6,35.6-35.6h30.5c19.6,0,35.6,16,35.6,35.6v30.5  C551.5,130.3,535.5,146.3,515.9,146.3z"></path>	<path class="st3" d="M505.5,118h6.6c6.3,0,11.4-5.1,11.4-11.4s-5.1-11.4-11.4-11.4h-30.5c-1.3,0-2.5-0.7-3.1-1.9  c-0.6-1.2-0.5-2.5,0.3-3.6l7.1-9.3c0.7-0.9,1.6-1.3,2.7-1.3H512c15.2,0,27.6,12.4,27.6,27.6c0,14.9-12,27.2-26.9,27.6  c-0.1,0-0.2,0-0.2,0h-0.4l0,0h-6.6l0,0h-10l0,0h-6.6l0,0h-0.4c-0.1,0-0.2,0-0.3,0c-13.5-0.3-24.8-10.5-26.6-23.5  c-0.3-1.8,0.5-4,3-4.1h9.6c1.9,0.1,3.1,1.1,3.6,3v0.1l0,0l0,0c1.4,4.8,5.8,8.3,11,8.3h6.6l0,0L505.5,118L505.5,118L505.5,118z   M535.3,62.4l-7.1,9.3c-0.7,0.9-1.6,1.3-2.7,1.3h-43.8c-1.3,0-2.5-0.7-3.1-1.9c-0.6-1.2-0.5-2.5,0.3-3.6l7.1-9.3  c0.7-0.9,1.6-1.3,2.7-1.3h43.8c1.3,0,2.5,0.7,3.1,1.9C536.2,60,536.1,61.4,535.3,62.4z"></path></g></svg>